<?xml version="1.0" encoding="UTF-8"?>
<svg id="Layer_1" xmlns="http://www.w3.org/2000/svg" version="1.1" viewBox="0 0 1024 1024">
  <!-- Generator: Adobe Illustrator 29.0.1, SVG Export Plug-In . SVG Version: 2.1.0 Build 192)  -->
  <defs>
    <style>
      .st0 {
        fill: #fa561c;
      }

      .st1 {
        fill: #ffbe00;
      }
    </style>
  </defs>
  <g>
    <path class="st0" d="M636.07,437.78c6.6-1.25,13.55-1.13,20.09.41,3,.4,4.93,3.44,4.79,6.33.05,20.07-.06,33.29.06,53.37,6.9-8.9,13.29-18.23,20.92-26.53,3.44-3.91,8.65-6.14,13.86-5.96,5.38,0,11.06.41,15.84,3.1,1.46.66,2.36,2.43,1.62,3.96-.89,2.14-2.59,3.81-3.82,5.75-7.47,10.91-15.74,21.28-25.31,30.44,3.13,2.78,5.5,6.25,8.27,9.35,8.24,10.06,16.83,19.84,24.79,30.12.77,3.59-3.29,4.83-5.85,5.86-4.32,1.15-8.81,1.06-13.23.85-5.29-.84-9.76-4.05-13.52-7.68-8.75-8.77-16.08-18.81-23.93-28.35.63,8.33.14,16.7.31,25.05-.09,3.62-.47,8.4-4.46,9.85-6.28,1.86-13.07,1.62-19.36-.06-2.95-.85-5.38-3.47-5.48-6.6-.02-36.72,0-66.57,0-103.29-.04-2.67,1.56-5.56,4.41-5.95Z"/>
    <path class="st0" d="M467.97,465.48c9.42-1.3,20.22.44,26.78,7.93.23-2.48,2.14-4.62,4.71-4.69,6.7-1.08,14.28-1.11,20.21,2.64.37,1.16.99,2.29.97,3.54-.02,21.88,0,43.75,0,65.62.05,3,.28,6.33-1.68,8.85-1.96,1.83-4.8,1.94-7.29,2.4-4.55.23-9.28.44-13.6-1.28-2.28-.91-2.32-3.62-3.05-5.6-3.55,4.05-8.02,7.35-13.28,8.76-10.14,2.81-21.33,1.04-30.44-4.15-11.25-6.36-19.49-17.91-21.58-30.69-.56-3.28-.45-6.64-.53-9.95-.24-12.44,5.26-24.92,14.7-33.04,6.72-5.84,15.33-9.2,24.11-10.35ZM471.15,491.09c-7.93,2.3-13.63,10.33-13.23,18.57-.23,4.92,1.11,10.04,4.46,13.77,5.82,7.29,17.86,8.87,24.99,2.61,9.74-8.57,8.58-26.46-2.74-33.17-3.92-2.74-8.98-2.36-13.47-1.79Z"/>
    <path class="st0" d="M564.33,465.96c10.38-2.05,22.76-.65,30.09,7.79.71-1.55.82-3.75,2.62-4.48,6.44-1.74,13.45-1.4,19.73.86,2.88,1.03,3.55,4.42,3.44,7.13-.02,21.37-.05,42.74-.05,64.11-.26,3.54-.62,8.38-4.77,9.51-6.24,1.47-13.46,2.02-19.19-1.33-.5-1.44-.96-2.89-1.37-4.35-5.88,7.07-15.44,10.24-24.43,9.74-4.4.31-8.6-1.22-12.77-2.35-8.77-3.08-16.44-9.11-21.58-16.84-4.78-6.73-7.07-14.94-7.46-23.12-.47-9.19,1.06-18.75,6.01-26.66,6.11-10.84,17.53-18.11,29.73-20.01ZM570,491.31c-6.09,2.16-10.9,7.5-12.34,13.79-1.34,6.3-.05,13.37,4.27,18.29,6.23,8.19,20.19,8.96,26.74.75,7.7-8.63,6.23-23.57-3.2-30.35-4.38-3.33-10.29-3.7-15.47-2.49Z"/>
    <path class="st0" d="M324.34,469.59c8.6-5.39,19.87-5.97,29-1.57,5.12,2.21,8.85,6.56,11.63,11.28,5.53-6.54,12.72-12.31,21.38-13.73,7.37-1.19,15.21-.3,21.77,3.42,8.9,4.51,14.47,14,15.69,23.71,0,18.13.02,36.24,0,54.37-.09,3.09-2.16,5.83-5.01,6.96-6.65,1.34-13.61,1.26-20.12-.68-3.64-1.15-3.42-5.53-3.91-8.59-.19-14.2.02-28.4-.09-42.6-.17-4.21-1.63-8.93-5.79-10.78-6.34-2.84-15.48-.23-17.87,6.75-2.57,6.81-1.87,14.25-2,21.38-.17,8.4.04,16.8-.06,25.19-.13,2.92-.04,6.65-2.92,8.36-4.41,2.46-9.69,2.05-14.51,1.57-2.56-.67-5.73-.28-7.68-2.34-1.36-2.28-2.06-4.96-1.9-7.61.09-7.89-.14-15.8.31-23.68.05-6.55-.26-13.1-.33-19.64-.55-3.14-1.28-6.54-3.67-8.84-2.9-2.85-7.52-3.73-11.28-2.18-5.78,1.61-9.51,7.23-10.74,12.83-.56,15.13.39,30.33-.95,45.44.09,2.52-1.94,4.64-4.31,5.19-6.5,1.77-13.52,1.53-19.9-.59-3.75-1.38-4.75-5.73-4.77-9.29.02-22.06-.53-44.13-.13-66.18.26-2.38.38-4.88,1.46-7.07,1.8-2.51,5.19-2.44,7.94-2.68,5.36-.31,11-.5,16.07,1.53,3.09,1.43,2.84,5.23,2.86,8.08,3.33-2.6,5.98-6.05,9.82-7.97Z"/>
    <path class="st0" d="M786.13,466.37c6.94-1.88,14.48-1.74,21.3.59,1.54.41,2.49,1.73,3.37,2.97-.08,1.33.08,2.72-.49,3.97-3.78,10.07-7.85,20.03-11.51,30.14-4.74,12.31-9.72,24.54-14.27,36.93-5.17,13.1-10.62,26.92-21.63,36.3-7.44,5.69-16.48,10.3-26.09,9.74-3.9-.05-8.91-.4-11.08-4.18-1.62-4.16-.6-8.68-.54-13,.03-3.43,1.67-7.42,5.32-8.32,4.52-1.1,9.52-.51,13.72-2.84,3.58-1.78,5.7-5.46,6.99-9.1.69-2.09-1.04-3.79-1.84-5.54-10.41-20.3-18.51-41.65-27.29-62.66-1.53-4.14-4.26-8.31-3.36-12.89,1.1-1.7,3.24-2.35,5.16-2.56,6.08-.23,12.32-.93,18.28.67,2.71.59,4.36,3.13,5.35,5.54,3.72,8.96,7.55,17.88,11.15,26.89,2.63,5.98,5.15,12.03,6.66,18.41,1.56-2.06,2.06-4.65,3-7.01,4.8-12.9,9.08-25.98,13.83-38.91.7-2.08,1.63-4.51,3.98-5.15Z"/>
    <path class="st0" d="M265.57,505.13c-4.26-2.57-8.99-3.9-13.57-5.19-2.46-.69-5-1.41-7.38-2.3-1.92-.73-4.27-1.81-5.51-3.74-.8-1.36-.57-3.35.52-4.72,1.33-1.31,3.33-2.03,5.63-2.03.71,0,1.43.07,2.13.21.05.01.11.02.16.03,4.02.46,8.13,1.89,12.23,4.24,1.24.76,2.71,1.17,4.25,1.17,2.51,0,4.84-1.11,6.23-2.96,1.28-1.65,2.31-3.44,3.34-5.23l.46-.79c1.11-1.79,1.33-4.11.66-6.89-.02-.08-.04-.15-.07-.22-1.21-3.27-4.07-6-8.27-7.91-6.21-2.75-13.15-4.17-20.64-4.2h-.5s0,0,0,0c-2.11,0-4.26.13-6.39.36-2.94.31-5.75,1.07-8.11,1.77l-.08.03c-8.72,3.01-15.46,9.9-17.58,17.98-2,6.25-.24,12.53,1.62,16.76,3.84,8.07,11.46,14.37,20.89,17.3.04.01.07.02.11.03.92.23,1.87.45,2.83.67,4.58,1.06,8.91,2.06,12.31,4.83,1.84,1.48,2.56,4.14,1.66,6.04-1.01,1.56-2.96,2.22-4.4,2.49-.9.08-1.81.12-2.72.12-6.18,0-12.23-1.9-17.02-5.34-1.87-1.51-4.52-1.92-7.7-1.19-.23.05-.46.15-.66.28-4.45,2.95-6.15,8.01-7.65,12.47l-.03.09c-.06.18-.09.36-.1.54-.19,3.92,2.3,7.75,6.63,10.23,6.22,3.65,13.44,4.64,20.3,5.34.07,0,.14,0,.25,0,1.26-.03,2.83-.01,4.29.01.92.02,1.87.03,2.8.03,2.56,0,5.59-.1,8.61-.86,4.82-.76,11.66-2.81,16.9-8.3,4.43-4.36,7.24-10.09,7.92-16.11,0-.05,0-.1.01-.16.33-9.78-5.31-19.56-14.37-24.91Z"/>
  </g>
  <path class="st1" d="M253.39,613.75c3.98-1.33,8.38-.28,11.73,2,7.61,4.93,14.36,10.93,21.88,15.99,35.8,24.55,76.45,42.59,119.06,53.33,41.28,10.44,84.16,14.45,126.78,12.96l18.62-1.42c22.97-1.96,45.62-6.42,67.96-11.75,49-12.57,96.16-33.66,135.21-64.88,4.43-3.13,9.17-7.18,15.09-6.69,5.3.92,9.74,4.81,12.05,9.35,1.41,5.33.17,11.05-2.55,15.83-5.75,10.08-14.45,18.13-22.62,26.38-12.97,12.2-27.19,23.16-42.54,32.51-18.23,11.25-37.14,21.73-57.51,29.06-15.59,6.33-31.86,10.89-48.17,15.17-48.46,12.15-99.48,14.25-149,7.38-22.68-3.44-45.29-7.77-67.13-14.67-21.63-6.73-42.54-15.62-62.16-26.61-29.16-15.64-56.05-35.5-77.8-59.85-5.25-5.81-10.4-12.61-10.65-20.58.5-6.29,5.68-11.49,11.75-13.51Z"/>
  <path class="st1" d="M253.39,410.25c3.98,1.33,8.38.28,11.73-2,7.61-4.93,14.36-10.93,21.88-15.99,35.8-24.55,76.45-42.59,119.06-53.33,41.28-10.44,84.16-14.45,126.78-12.96l18.62,1.42c22.97,1.96,45.62,6.42,67.96,11.75,49,12.57,96.16,33.66,135.21,64.88,4.43,3.13,9.17,7.18,15.09,6.69,5.3-.92,9.74-4.81,12.05-9.35,1.41-5.33.17-11.05-2.55-15.83-5.75-10.08-14.45-18.13-22.62-26.38-12.97-12.2-27.19-23.16-42.54-32.51-18.23-11.25-37.14-21.73-57.51-29.06-15.59-6.33-31.86-10.89-48.17-15.17-48.46-12.15-99.48-14.25-149-7.38-22.68,3.44-45.29,7.77-67.13,14.67-21.63,6.73-42.54,15.62-62.16,26.61-29.16,15.64-56.05,35.5-77.8,59.85-5.25,5.81-10.4,12.61-10.65,20.58.5,6.29,5.68,11.49,11.75,13.51Z"/>
</svg>